# xmcd
#
# Track frame offsets: 
#        150
#        16566
#        30797
#        44454
#        59216
#        78599
#        92466
#        107642
#        121204
#        135923
#        151030
#        169174
#        185031
#        202741
#        218047
#        230341
#        245351
#
# Disc length: 3452 seconds
#
# Revision: 0
# Processed by: cddbd v1.5.2PL0 Copyright (c) Steve Scherf et al.
# Submitted via: ExactAudioCopyFreeDBPlugin 1.0
#
DISCID=cb0d7a11
DTITLE=Truck Stop - Das große Jubiläum - CD1
DYEAR=2018
DGENRE=Country
TTITLE0=Männer sind so
TTITLE1=Die Party geht weiter
TTITLE2=HillyBilly Country Lilly
TTITLE3=Bauchgefühl
TTITLE4=Frei sein kann man nur alleine
TTITLE5=Take It Easy, altes Haus (Neuaufnahme)
TTITLE6=Mama macht Karriere
TTITLE7=Danke für nix
TTITLE8=Du bist so süß, wenn du Recht hast
TTITLE9=Weil ihr die Country Music liebt
TTITLE10=Letzter Halt
TTITLE11=Wenn Männerherzen brechen
TTITLE12=Ohne Frauen wie dich
TTITLE13=Tausend gute Gründe für ne Selter
TTITLE14=Cisco, Lucius, Erich, Uwe, Teddy und ich
TTITLE15=Lass dir nie den Tag verderben
TTITLE16=Wir sind 'ne Countryband
EXTD=
EXTT0=
EXTT1=
EXTT2=
EXTT3=
EXTT4=
EXTT5=
EXTT6=
EXTT7=
EXTT8=
EXTT9=
EXTT10=
EXTT11=
EXTT12=
EXTT13=
EXTT14=
EXTT15=
EXTT16=
PLAYORDER=
